<svg width="28" height="16" viewBox="0 0 28 16" fill="none" xmlns="http://www.w3.org/2000/svg">
<path d="M26.9277 3.76636C25.6859 1.44425 23.2584 0 20.6333 0H0.677428C0.310488 0 0 0.311501 0 0.707963C0 0.877875 0.0846786 1.04779 0.197584 1.18938L4.54441 5.57875C4.93958 5.9752 5.44766 6.17344 5.98395 6.17344H20.0406C21.0285 6.17344 21.8753 6.96635 21.8753 7.98583C21.8753 9.00524 21.0849 9.82653 20.0688 9.82653H10.3872C10.0203 9.82653 9.70981 10.138 9.70981 10.5345C9.70981 10.7044 9.79449 10.8743 9.9074 11.0159L14.2542 15.4053C14.6494 15.8017 15.1575 16 15.6938 16H20.0688C25.7988 15.9717 30.0892 9.85485 26.9277 3.76636Z" fill="#FF3008"/>
</svg>
