<svg width="172" height="161" viewBox="0 0 172 161" fill="none" xmlns="http://www.w3.org/2000/svg">
<path d="M1.64632 95.7225C5.31205 83.8163 23.6527 63.0293 14.2314 53.0588C-8.55158 28.9471 2.05044 3.63111 37.0073 6.74003C43.3016 7.30002 49.3128 9.57523 54.7429 12.9477C80.9001 29.1915 112.175 -17.2641 136.02 7.35202C159.207 31.2898 127.47 47.5624 152.273 53.8573C187.208 64.2849 168.262 137.991 152.406 149.12C117.681 148.855 82.9976 149.649 54.3566 148.854C43.7105 148.06 -10.0131 133.59 1.64632 95.7225Z" fill="#E2F3F7"/>
<path d="M67.2381 101.788C69.543 102.224 71.324 100.429 73.4841 100.169C76.0424 99.86 77.2184 100.094 78.1357 99.9981C79.0537 99.9019 80.1903 99.6628 80.0687 98.9014C79.9477 98.14 79.1174 97.935 78.5422 97.9297C77.4997 97.9201 75.4058 97.7826 75.3861 97.5466C75.376 97.4282 79.8363 97.4958 80.5867 97.4772C81.3365 97.4575 81.9827 97.5687 82.6085 97.4432C83.2344 97.3183 83.6635 96.9155 83.5718 96.5085C83.48 96.1009 83.3357 95.7584 82.5656 95.5415C83.3059 95.404 84.1708 95.373 84.5672 95.272C84.9641 95.1704 85.4458 94.703 85.2914 94.2428C85.137 93.782 84.5242 93.3703 83.9407 93.3117C83.3578 93.2543 81.423 93.0392 80.6183 93.0057C79.8059 92.9722 78.5047 92.6322 78.5047 92.6322C78.5047 92.6322 82.4762 92.3937 83.1646 92.3214C83.8525 92.2491 84.3436 91.8995 84.2423 91.3742C84.1404 90.8488 83.4031 90.3307 82.1317 90.345C80.8603 90.3588 74.1726 90.7556 71.9147 91.2983C68.913 92.0202 68.2382 93.4199 63.9639 95.8636C63.7929 101.964 67.2381 101.788 67.2381 101.788Z" fill="#A98671"/>
<path d="M82.53 95.6197L82.5228 95.6898C79.6827 95.1091 75.9448 95.3365 75.9064 95.3371L75.8937 95.0229C75.9322 95.0218 79.6529 95.0308 82.53 95.6197Z" fill="#A98671"/>
<path d="M30.4341 107.814C35.2496 106.111 39.636 104.976 41.7687 104.409C48.0702 102.73 55.2687 101.193 60.8358 97.9427C65.1763 95.4099 67.1332 94.5744 68.1017 93.7968C68.7622 93.2679 71.3312 93.1777 73.2433 95.9698C73.8823 96.9022 74.6995 98.1704 73.7285 99.4529C72.6234 100.913 69.0495 101.591 68.1339 102.081C66.0692 103.186 67.4795 102.437 61.0069 106.333C54.445 110.283 46.3601 115.595 33.9538 119.755C33.0466 120.059 31.1959 119.586 31.1959 119.586C31.1959 119.586 28.6889 117.422 27.6696 115.744C26.1795 113.291 25.519 109.714 25.519 109.714L30.4341 107.814Z" fill="#A98671"/>
<path d="M38.4385 72.0665C39.0554 72.4717 40.9467 75.4718 45.2669 74.83C50.6189 74.0351 53.9883 70.0602 53.856 65.6216C53.732 61.4722 52.6287 59.8436 53.2463 57.6138C53.8638 55.3834 56.3666 47.338 56.3666 47.338C56.3666 47.338 54.3186 41.4417 52.1376 41.1106C49.9513 40.7783 49.7474 42.4087 49.7474 42.4087L49.5412 45.0443C49.5412 45.0443 52.0112 47.0714 51.5994 50.1122C51.1881 53.1536 49.5412 62.6824 47.6892 63.4934C45.8361 64.3044 40.7083 64.6283 40.7083 64.6283L38.4385 72.0665Z" fill="#24372B"/>
<path d="M153.471 149.05L155.631 140.921L119.069 139.224L118.383 148.095L153.471 149.05Z" fill="#9EC8CF"/>
<path d="M142.93 112.396C146.418 114.981 145.515 117.802 143.6 119.978C141.685 122.154 132.55 121.305 132.55 121.305L118.338 114.612C118.338 114.612 112.351 110.199 108.986 108.029C108.021 107.407 102.946 103.776 100.57 102.966C98.1934 102.157 107.598 97.5111 109.786 98.7745C112.574 100.384 128.74 104.736 132 106.412C135.261 108.088 142.223 111.874 142.93 112.396Z" fill="#846854"/>
<path d="M135.856 55.6853C136.193 55.5251 136.589 55.5861 136.857 55.8455C138.976 57.8936 150.247 67.8413 151.125 70.0705C153.503 76.1048 156.138 89.1435 157.172 94.8127C158.206 100.482 156.311 140.838 156.311 140.838L130.583 141.803C130.583 141.803 116.414 134.522 115.876 134.183C114.193 133.122 116.805 96.1162 116.799 91.3871C116.793 86.6573 119.601 73.927 120.378 70.5289C121.154 67.1313 125.028 62.5205 125.028 62.5205L135.856 55.6853Z" fill="white"/>
<path d="M126.284 78.1546L125.075 77.6699C125.16 76.832 125.913 69.407 127.185 67.7581C129.41 64.8751 139.508 59.4856 140.79 58.7559L142.009 60.0695C138.309 61.9239 131.834 65.6341 128.795 68.5488C128.011 69.3 126.511 75.9398 126.284 78.1546Z" fill="#5D7A6C"/>
<path d="M119.513 74.5503L129.172 79.1987L142.405 139.655L143.1 148.525H115.688L115.625 135.914L115.929 100.789L117.335 80.9851C117.335 80.9851 118.952 75.1754 119.513 74.5503Z" fill="#345848"/>
<path d="M125.754 115.646C125.754 115.646 132.788 86.9702 135.414 82.3216C138.038 77.6725 145.054 78.0317 148.468 79.8838C151.883 81.7358 146.735 120.236 139.582 125.51C136.94 127.456 125.754 115.646 125.754 115.646Z" fill="#846854"/>
<path d="M153.15 100.43L126.651 102.069C126.651 102.069 127.836 79.7417 129.095 76.3991C130.353 73.0559 136.769 70.9588 137.453 70.7598L152.069 76.3106L153.15 100.43Z" fill="white"/>
<path d="M154.059 101.817C154.043 101.587 152.513 78.7012 150.563 75.5714C148.682 72.5539 138.519 71.15 137.875 71.064C137.371 71.2193 130.601 73.3726 129.298 76.8366L128.834 79.3162L128.54 79.2606L129.012 76.7559C130.418 73.0147 137.747 70.7896 137.821 70.7681L137.851 70.7598L137.88 70.7634C138.326 70.8201 148.807 72.1929 150.815 75.4136C152.805 78.6062 154.293 100.852 154.355 101.798L154.059 101.817Z" fill="#E1E0D7"/>
<path d="M92.6245 94.4791C92.8117 95.2793 94.694 99.5961 94.8836 99.5423C95.3503 99.4096 97.0002 99.4574 96.9578 99.3492C96.9149 99.2411 96.4059 97.943 95.8784 97.0268C95.3503 96.1106 95.0385 95.4222 94.5027 94.8628C93.878 94.2096 93.6098 94.0906 93.1478 94.148C92.7181 94.2012 92.6245 94.4791 92.6245 94.4791Z" fill="#7A5948"/>
<path d="M89.7963 94.9595C89.6836 95.3163 91.6083 99.366 91.8306 99.6116C92.0535 99.8566 92.4976 99.8064 93.1586 99.8793C93.8191 99.9522 94.2167 99.4622 94.2167 99.4622C94.2167 99.4622 93.8882 98.9464 93.4436 98.081C92.9059 97.0346 92.5864 96.3783 92.0845 95.7436C91.5827 95.1089 91.4992 95.0581 90.9568 94.8561C90.4138 94.6535 89.8332 94.8418 89.7963 94.9595Z" fill="#7A5948"/>
<path d="M86.8631 96.5657C87.3298 97.3809 88.6239 99.6602 88.6239 99.6602C88.6239 99.6602 89.3612 100.036 90.0729 100.13C90.784 100.224 91.4975 100.11 91.4492 99.8784C91.4009 99.6483 91.0111 98.7608 91.0111 98.7608L89.4047 96.8131C89.4047 96.8131 88.8259 95.8754 88.4093 95.4571C87.9921 95.0381 87.8401 94.973 87.449 94.8355C87.058 94.6986 86.6444 94.765 86.3493 95.0405C86.1949 95.1845 86.8631 96.5657 86.8631 96.5657Z" fill="#7A5948"/>
<path d="M82.5472 96.4395C82.6217 96.6774 86.3453 102.13 88.7551 103.369C92.1121 105.095 104.735 103.446 104.735 103.446L110.355 99.5377C110.355 99.5377 105.477 95.5454 104.236 95.004C102.995 94.4619 100.096 93.7716 99.5455 93.5308C98.9935 93.2893 93.5981 90.2617 93.3835 90.346C93.1689 90.4302 92.4501 91.1719 93.1754 92.1461C93.9003 93.1208 97.6757 95.7564 97.8312 96.1532C97.9868 96.5507 96.9514 97.9898 96.4955 98.2838C96.0401 98.5778 89.3029 99.1713 88.9494 98.8528C88.5954 98.5336 85.3689 95.8138 84.8027 95.561C83.2798 94.882 82.4727 96.2016 82.5472 96.4395Z" fill="#846854"/>
<path d="M102.333 102.881L106.112 96.987C106.112 96.987 105.571 95.6094 104.332 95.0644C103.092 94.5187 100.195 93.8207 99.6443 93.5787C99.0936 93.336 94.3764 90.3442 93.7583 90.3442C92.9178 90.3442 92.5763 92.537 93.4495 93.3802C95.1179 94.9915 97.2184 95.6369 97.3429 96.0445C97.7506 97.379 96.3142 99.9339 93.3047 100.144L102.333 102.881Z" fill="#846854"/>
<path d="M96.1402 91.0346C96.4057 91.1959 95.6052 91.4927 95.1285 91.4322C94.653 91.3719 93.3894 90.7642 93.2802 90.5275C93.1697 90.287 93.0843 89.9848 93.3173 89.7455C93.6018 89.4515 95.4449 90.6125 96.1402 91.0346Z" fill="#937766"/>
<path d="M79.0769 90.1605L79.54 94.4856L85.4577 94.3428L85.9929 90.1605L84.8956 91.6779L83.6475 89.7129L82.7516 91.1831L81.758 89.7679L80.5688 91.351L79.0769 90.1605Z" fill="#71B269"/>
<path d="M88.8289 91.3941C87.9747 91.9685 87.7208 93.2385 88.026 93.7721C88.3323 94.3064 88.6488 94.9979 89.9113 95.1479C91.1743 95.2985 93.0978 94.6883 93.248 94.2813C93.3982 93.8743 93.7147 92.0001 92.5888 91.4503C91.2154 90.7798 89.5984 90.8766 88.8289 91.3941Z" fill="#FAFAF7"/>
<path d="M90.7179 93.6471C90.9325 93.9244 91.432 93.4648 91.5285 93.4253C91.6245 93.3859 92.1514 92.8857 92.0763 92.759C92.0012 92.6317 91.4451 92.2402 91.4451 92.2402C91.4451 92.2402 91.1274 92.4279 90.7966 92.4177C90.4652 92.4076 89.9347 92.3783 89.8119 92.5193C89.6898 92.6604 90.1505 93.0913 90.2673 93.3476C90.3841 93.604 90.6452 93.5526 90.7179 93.6471Z" fill="#C3DEC1"/>
<path d="M89.2642 92.491C89.2642 92.491 88.8649 92.9154 88.8458 93.1156C88.8267 93.3152 89.1462 93.6242 89.1462 93.6242L89.7751 93.6463C89.7751 93.6463 89.8764 93.2094 89.9968 93.0355C90.1166 92.8616 90.575 92.3339 90.305 92.2532C90.035 92.1731 89.2642 92.491 89.2642 92.491Z" fill="#B1D4AC"/>
<path d="M83.8177 93.0478C83.8207 92.9982 83.9471 92.7556 84.1903 92.4197C84.4335 92.0844 84.6421 91.3965 85.073 91.672C85.5052 91.947 85.9135 91.6709 86.2246 92.0892C86.5364 92.5069 86.8094 92.6229 86.8416 93.0239C86.8744 93.4261 87.2618 93.4984 86.8481 93.8743C86.4345 94.2497 86.1853 94.6853 85.51 94.7457C84.8346 94.8061 84.0621 94.6112 83.9125 94.3028C83.7623 93.9939 83.8094 93.1889 83.8177 93.0478Z" fill="#C3D47A"/>
<path d="M96.5672 94.758C97.4231 94.186 97.6812 92.9172 97.3766 92.3823C97.0726 91.8474 96.7573 91.1548 95.4955 91.0012C94.2336 90.847 92.3077 91.4512 92.1569 91.8576C92.0055 92.2646 91.6837 94.1376 92.8078 94.691C94.1788 95.3658 95.7959 95.2737 96.5672 94.758Z" fill="#FAFAF7"/>
<path d="M94.6251 91.6974C94.4117 91.4195 93.911 91.8773 93.8144 91.9168C93.7179 91.9562 93.1897 92.4547 93.2643 92.5814C93.3394 92.7087 93.8937 93.1019 93.8937 93.1019C93.8937 93.1019 94.212 92.9154 94.5428 92.9268C94.8742 92.9376 95.4053 92.968 95.5281 92.8282C95.6503 92.6871 95.1913 92.255 95.0751 91.9981C94.9589 91.7417 94.6978 91.7919 94.6251 91.6974Z" fill="#FF4F2D"/>
<path d="M95.9572 93.3967C95.9572 93.3967 96.3583 92.9735 96.3774 92.7739C96.397 92.5743 96.0787 92.2641 96.0787 92.2641L95.4493 92.2402C95.4493 92.2402 95.3474 92.6771 95.2264 92.8504C95.106 93.0237 94.6464 93.5503 94.9159 93.6315C95.1859 93.7128 95.9572 93.3967 95.9572 93.3967Z" fill="#FF6E52"/>
<path d="M74.68 95.3571C75.6456 95.6996 77.6829 95.1139 78.4041 95.2119C79.126 95.3105 80.7502 95.4976 81.4571 95.2023C82.164 94.9071 82.0252 94.5198 81.7712 92.8584C81.5173 91.197 74.8385 91.6912 74.2943 91.6356C73.7496 91.5794 74.1567 95.1718 74.68 95.3571Z" fill="#FAFAF7"/>
<path d="M75.2898 90.9766C74.2914 91.0124 73.9886 91.5664 74.0417 92.0487C74.0751 92.3481 74.0482 93.0898 74.3093 93.4072C74.571 93.7245 75.1724 94.1112 75.6993 93.8536C76.2268 93.5966 77.6883 93.5548 79.3066 93.4484C80.9755 93.339 82.1992 93.8476 82.443 93.6719C82.6868 93.4962 82.5765 92.0081 81.9549 91.622C80.755 90.8768 79.4169 91.1134 78.6283 91.0525C77.8391 90.9927 75.2898 90.9766 75.2898 90.9766Z" fill="#FF6E52"/>
<path d="M73.3122 95.1603C73.4213 95.4018 73.8921 96.5058 74.2846 96.5423C74.6771 96.5794 97.858 96.6616 98.179 96.5255C98.4992 96.3905 99.1311 94.9153 99.1311 94.9153L73.3122 95.1603Z" fill="#345848"/>
<path d="M70.8692 94.4015C70.9409 94.8162 71.0489 95.093 71.2272 95.1626C71.4049 95.2327 101.247 95.3755 101.282 95.03C101.316 94.6845 101.385 94.1663 101.207 94.1308C101.029 94.0959 70.8692 94.4015 70.8692 94.4015Z" fill="#345848"/>
<g opacity="0.61">
<g opacity="0.61">
<path opacity="0.61" d="M72.5461 89.3838C72.2254 89.7287 71.3695 92.9828 71.1561 93.0211C70.9421 93.0593 70.3627 93.5697 70.3002 93.749C70.1935 94.055 70.3002 94.5146 70.4432 94.5146C70.5857 94.5146 101.778 94.5911 101.956 94.2468C102.135 93.902 102.099 93.4042 101.635 93.2512C101.172 93.0982 100.779 92.5621 100.779 92.5621C100.779 92.5621 100.388 90.1112 100.031 89.4986C99.675 88.886 72.8668 89.039 72.5461 89.3838Z" fill="white"/>
</g>
</g>
<path d="M105.886 32.1983C106.079 35.5475 107.234 38.4066 109.298 40.1553C111.361 41.9051 113.086 40.72 113.086 40.72L116.433 36.7117L121.532 35.3658C121.532 35.3658 124.203 39.3526 123.901 40.6393C123.599 41.9249 132.397 50.8363 132.397 50.8363C132.397 50.8363 138.316 41.2675 136.105 33.7695C134.532 28.4361 129.823 24.9089 127.177 24.8479C124.529 24.7864 120.725 27.4327 121.108 25.6039C121.491 23.7752 115.458 22.9002 113.781 23.6371C112.106 24.3746 112.517 27.4351 111.494 27.6156C110.471 27.7961 107.665 25.8251 107.103 26.6289C106.542 27.4327 105.692 28.8491 105.886 32.1983Z" fill="#24372B"/>
<path d="M135.034 38.2447C133.606 28.2427 130.166 27.3187 126.661 27.813C125.403 27.9899 124.225 28.4465 122.98 28.9306C120.979 29.7075 118.908 30.5107 116.454 30.0774C115.109 29.8402 114.198 29.2575 113.747 28.3449C112.853 26.537 114.078 24.1106 114.131 24.0078L114.378 24.1357C114.365 24.1596 113.164 26.5412 113.996 28.2218C114.406 29.0501 115.249 29.582 116.502 29.8031C118.882 30.2232 120.914 29.4338 122.879 28.6706C124.085 28.2026 125.332 27.7185 126.623 27.5369C131.613 26.8358 134.127 29.9268 135.309 38.2053L135.034 38.2447Z" fill="#345848"/>
<path d="M112.472 39.459C109.91 38.4137 108.497 36.1696 108.387 32.9686C108.304 30.5703 108.987 28.4517 108.994 28.4302L109.259 28.5174C109.232 28.5999 106.636 36.778 112.577 39.2008L112.472 39.459Z" fill="#345848"/>
<path d="M133.122 50.1822C133.214 49.8433 130.906 45.1805 130.971 44.5703C131.254 41.8845 131.431 40.1944 130.468 39.7049C128.925 38.9202 126.149 40.703 126.149 40.703C126.149 40.703 122.938 35.1426 121.996 34.7804C121.054 34.4182 113.939 37.2624 113.939 37.2624L112.268 40.8189C112.268 40.8189 111.637 50.7643 111.918 51.3165C112.199 51.8693 114.137 51.7133 114.137 51.7133C114.137 51.7133 116.643 57.9533 117.194 58.5073C117.746 59.0613 122.243 57.5941 122.839 57.707C123.434 57.82 126.026 65.5498 126.026 65.5498L137.919 56.9516L133.122 50.1822Z" fill="#846854"/>
<path d="M130.637 44.9316L129.201 48.7725C129.201 48.7725 131.519 51.7154 132.042 51.9985C132.565 52.2822 134.213 47.9211 134.704 46.2925C135.063 45.1028 130.637 44.9316 130.637 44.9316Z" fill="#24372B"/>
<path d="M63.9658 100.533L62.3173 149.343L106.065 149.005L100.931 100.159L63.9658 100.533Z" fill="#FF3000"/>
<path d="M98.1049 117.914H69.313L70.8723 101.27L73.5801 101.408L72.1651 115.195H94.8301L92.0543 101.592L94.7175 101.085L98.1049 117.914Z" fill="#FF5636"/>
<path d="M54.3665 149.428C53.0902 138.548 51.8678 127.646 51.8678 127.646L34.0735 134.273C34.0735 134.273 34.4755 140.781 34.9859 149.126L54.3665 149.428Z" fill="#70BFC7"/>
<path d="M48.635 148.881C49.3533 141.441 50.9519 123.198 50.9519 123.198L28.4979 125.473C27.9394 128.371 26.2651 131.714 23.4743 135.504C20.9429 138.941 18.9509 144.1 18.5879 149.141L48.635 148.881Z" fill="#A7CDD4"/>
<path d="M50.7682 123.181L51.0386 123.2L49.7057 142.524L49.4354 142.505L50.7682 123.181Z" fill="#DEF4F8"/>
<path d="M43.6095 60.4112C42.0073 62.7957 42.8423 73.1433 42.8423 73.1433L43.4372 77.0686L36.3012 75.6773L29.6135 71.6677C29.6135 71.6677 32.6421 69.0453 33.2459 66.2136C35.0567 57.723 33.5564 52.5988 33.6303 51.8631C33.7048 51.1274 37.876 57.8204 37.876 57.8204L41.7635 60.3669L43.6095 60.4112Z" fill="#B8947D"/>
<path d="M42.7268 38.0736C48.2201 37.2728 49.0259 39.496 50.7694 41.7282C51.9973 43.3 54.0072 44.5108 53.9404 47.9556C53.8981 50.1603 53.215 52.7618 53.6203 55.9711C53.7526 57.0164 54.552 59.2229 54.2813 59.5486C54.1156 59.7476 53.7854 59.9125 53.4218 60.0123C53.1769 60.0793 52.4974 59.946 52.4974 59.946C52.4974 59.946 52.2995 61.2046 51.9687 62.2648C51.5723 63.1918 49.5743 66.4131 47.8618 66.6366C46.1464 66.8613 44.3707 66.0407 42.0813 65.2052C40.6228 64.3572 39.3335 63.1858 38.5562 61.8011C37.41 59.7583 33.7801 59.3651 32.3757 53.1491C30.9482 46.829 32.6011 43.34 33.7234 41.3636C34.8452 39.3872 36.2263 39.0215 42.7268 38.0736Z" fill="#BF9A7F"/>
<path d="M46.5398 72.8987C46.1357 72.5001 43.9136 71.4578 42.774 71.6072C42.8234 72.1535 42.9313 73.4258 42.6256 73.4456C36.5238 73.828 29.2656 70.7598 29.2656 70.7598C25.6511 71.5947 20.5876 81.5627 20.2819 82.5685C19.3186 85.7432 20.0065 130.121 21.9341 131.225C23.8612 132.33 29.7812 132.053 36.1828 131.018C44.0895 129.74 53.5292 129.362 56.2132 123.357C56.8116 122.019 55.5492 108.806 52.9099 94.5769C50.8606 83.5343 49.7609 76.0788 46.5398 72.8987Z" fill="#FF421C"/>
<path d="M64.7158 110.633C67.0208 111.069 68.8018 109.274 70.9619 109.014C73.5202 108.705 74.6962 108.939 75.6135 108.843C76.5314 108.747 77.6681 108.508 77.5465 107.746C77.4255 106.985 76.5952 106.78 76.02 106.774C74.9775 106.765 72.8836 106.627 72.8639 106.391C72.8538 106.273 77.3141 106.341 78.0645 106.322C78.8143 106.302 79.4605 106.413 80.0863 106.288C80.7122 106.163 81.1413 105.76 81.0489 105.353C80.9577 104.946 80.8135 104.603 80.0434 104.386C80.7837 104.249 81.6486 104.218 82.0449 104.117C82.4419 104.015 82.9235 103.548 82.7692 103.088C82.6148 102.627 82.002 102.215 81.4185 102.157C80.8356 102.099 78.9008 101.884 78.0961 101.85C77.2837 101.817 75.9825 101.477 75.9825 101.477C75.9825 101.477 79.954 101.238 80.6424 101.166C81.3303 101.094 81.8214 100.744 81.7201 100.219C81.6182 99.6936 80.8809 99.1754 79.6095 99.1897C78.3381 99.2035 71.6503 99.6003 69.3925 100.143C66.3908 100.865 65.716 102.265 61.4417 104.708C61.2706 110.809 64.7158 110.633 64.7158 110.633Z" fill="#BF9A7F"/>
<path d="M80.0114 104.464L80.0042 104.534C77.1642 103.954 73.4263 104.181 73.3878 104.182L73.3751 103.868C73.4136 103.866 77.1344 103.876 80.0114 104.464Z" fill="#BF9A7F"/>
<path d="M22.0537 89.7129C22.2123 94.5048 22.6396 109.754 22.7863 115.313C22.7863 115.313 22.6778 125.123 28.7551 124.925C34.6614 124.732 34.1107 114.753 34.1107 114.753C34.0636 111.018 33.5695 103.109 33.4556 100.595C33.2488 96.0401 33.2488 94.5908 33.306 91.3026L22.0537 89.7129Z" fill="#BF9A7F"/>
<path d="M27.9121 116.028C32.7277 114.324 37.114 113.19 39.2467 112.622C45.5482 110.943 52.7467 109.406 58.3139 106.157C62.6544 103.623 64.6112 102.788 65.5798 102.01C66.2402 101.481 68.8092 101.391 70.7214 104.183C71.3603 105.116 72.1775 106.384 71.2066 107.667C70.1015 109.127 66.5275 109.805 65.612 110.295C63.5473 111.399 64.9569 110.651 58.485 114.546C51.923 118.496 43.8381 123.808 31.4318 127.969C30.5246 128.273 28.6739 127.8 28.6739 127.8C28.6739 127.8 26.1669 125.635 25.1476 123.957C23.6575 121.505 22.9971 117.927 22.9971 117.927L27.9121 116.028Z" fill="#BF9A7F"/>
<path d="M133.239 121.273C137.576 121.253 145.287 111.427 144.503 114.22C140.936 126.939 134.196 130.914 134.196 130.914C134.196 130.914 101.616 138.594 100.638 139.193C99.6588 139.793 97.7658 142.098 95.3786 142.874C92.992 143.65 96.0432 130.529 98.5508 130.229C101.746 129.847 122.259 116.422 125.872 115.81C129.484 115.199 132.361 121.277 133.239 121.273Z" fill="#846854"/>
<path d="M136.449 55.6073C136.276 55.581 136.095 55.6055 135.928 55.6844L125.1 62.5196C125.1 62.5196 124.971 62.6732 124.761 62.938C125.357 64.5797 125.838 66.0146 125.838 66.0146L137.731 57.4164L136.449 55.6073Z" fill="#E6E6D5"/>
<path d="M76.2441 120.681C76.5577 121.373 76.4319 121.822 76.9737 122.409C77.5149 122.995 77.8398 123.346 78.1748 123.358C78.5103 123.37 80.6418 123.22 81.8715 123.264C83.1017 123.308 84.1073 123.344 84.202 123.914C84.2956 124.484 84.2849 124.824 83.3866 124.906C82.4896 124.987 80.5917 124.806 80.2532 124.907C79.914 125.008 78.688 124.852 79.2292 125.437C79.7704 126.024 80.9673 127.49 81.3201 127.469C81.909 127.433 84.084 127.494 84.8744 127.454C86.1911 127.388 87.379 125.218 87.3289 124.139C87.2789 123.065 86.3031 121.154 85.0764 120.996C83.8504 120.839 80.2729 120.711 79.4896 120.683C78.7076 120.656 76.2441 120.681 76.2441 120.681Z" fill="white"/>
<path d="M102.352 139.284C101.945 139.502 100.932 140.117 100.431 140.587C99.5561 141.407 98.7097 141.833 97.6899 142.711C96.67 143.589 94.1916 145.184 93.0258 145.478C91.8593 145.771 86.2587 147.346 85.016 147.603C83.7738 147.86 83.4424 147.47 83.1074 146.89C82.7718 146.31 83.5711 145.703 83.5711 145.703C83.5711 145.703 81.5612 146.301 80.4311 146.518C79.301 146.734 78.4862 145.88 78.4123 145.142C78.3932 144.955 78.5446 144.78 78.7789 144.624C77.0199 145.194 76.5508 144.385 76.2963 143.676C76.0328 142.942 77.3495 142.063 78.6406 141.47C79.5519 141.051 83.5199 139.539 84.681 139.056C85.8433 138.573 86.5908 138.176 86.6217 137.91C86.6533 137.643 86.1217 137.58 85.3706 137.788C84.6184 137.995 81.8879 138.534 80.0061 138.959C78.1244 139.383 76.5866 139.173 76.3034 138.383C76.0197 137.593 76.8035 137.119 77.6064 136.701C78.4105 136.284 82.6401 135.14 84.2518 134.495C85.8636 133.849 88.5941 133.31 89.2283 132.954C89.8637 132.597 89.8142 132.105 89.6974 131.956C89.58 131.807 87.7113 131.207 86.9466 130.845C86.1813 130.484 84.6345 129.895 83.7124 129.272C82.7891 128.649 82.9429 127.574 83.5097 127.115C84.0516 126.675 85.7509 127.516 86.6814 127.627C87.6112 127.738 88.7789 127.539 91.0391 127.903C92.72 128.173 94.4783 129.338 97.0754 130.377C97.8127 130.671 98.6245 130.825 100.427 130.466C100.427 130.466 101.283 131.159 102.118 134.758C102.954 138.358 102.352 139.284 102.352 139.284Z" fill="#846854"/>
<path d="M45.3691 83.4441C45.505 83.8105 45.4574 84.0537 45.6845 84.3603C45.9121 84.6663 46.0486 84.8503 46.1857 84.8515C46.3228 84.8527 47.1925 84.7392 47.6956 84.744C48.1986 84.7487 48.6099 84.7523 48.6552 85.0571C48.6993 85.3613 48.6981 85.5442 48.3321 85.6016C47.9656 85.6595 47.1883 85.5914 47.0506 85.6512C46.9135 85.7103 46.4105 85.6452 46.6376 85.9512C46.8652 86.2578 47.3689 87.0263 47.5132 87.0096C47.7534 86.9815 48.6433 86.9803 48.9657 86.9468C49.504 86.8913 49.9665 85.7085 49.9349 85.1294C49.9033 84.5533 49.4855 83.5427 48.9824 83.4776C48.48 83.4118 47.016 83.3981 46.696 83.3951C46.3753 83.3927 45.3691 83.4441 45.3691 83.4441Z" fill="white"/>
<path d="M47.9954 53.3084C47.8863 53.3084 47.7826 53.3455 47.6962 53.4166C47.5948 53.4997 47.5346 53.6174 47.5257 53.7483C47.4351 55.1569 47.4417 58.4487 49.4688 58.5832C49.5201 58.5868 49.5714 58.5886 49.622 58.5886C51.9866 58.5886 53.0327 54.8933 53.2502 54.0011L48.0604 53.3126C48.0389 53.3096 48.0169 53.3084 47.9954 53.3084ZM49.6274 58.8276C49.5702 58.8276 49.5118 58.8258 49.4522 58.8222C47.2116 58.6728 47.1919 55.2131 47.2879 53.7321C47.301 53.5349 47.3916 53.3574 47.5448 53.2313C47.6974 53.1064 47.897 53.0502 48.092 53.0759L54.586 53.9365C54.9466 53.9885 55.4425 54.1015 55.6011 54.4816C55.7328 54.836 55.3799 56.7783 54.862 57.8529C54.639 58.3136 54.4024 58.5874 54.158 58.6668L54.0847 58.4391C54.2087 58.3991 54.4066 58.2467 54.6468 57.7489C55.1791 56.6462 55.4693 54.8109 55.3793 54.57C55.2959 54.3698 55.033 54.2425 54.5532 54.1732L53.4898 54.0321C53.2794 54.931 52.2179 58.8276 49.6274 58.8276Z" fill="#FF0000"/>
<path d="M47.5678 53.465L47.573 53.689L39.5608 53.903L39.5556 53.6791L47.5678 53.465Z" fill="#FF0000"/>
<path d="M39.3379 53.4393C39.3379 53.4393 42.3277 55.7874 44.5909 52.8099C46.8536 49.8325 50.9234 43.6679 53.434 45.2576C54.1135 45.6879 53.378 41.9783 53.378 41.9783C53.378 41.9783 50.5396 35.1294 42.0696 35.387C33.3482 35.6517 33.8584 41.2576 31.6303 41.8791C28.361 42.7917 23.9663 42.1445 21.4891 42.0447C19.2092 42.9393 15.8349 44.7896 15.1459 48.9343C14.4854 52.9092 18.3026 58.2772 14.6923 61.5719C11.0826 64.8667 8.50582 65.9269 5.99524 70.2329C5.80629 75.4431 9.22943 80.6074 14.4187 83.0511C19.9024 85.6335 28.7234 84.807 34.1409 77.7847C41.8431 67.8017 38.0993 58.4098 37.1576 57.0161C35.2716 54.2252 36.6974 51.5782 39.3379 53.4393Z" fill="#24372B"/>
<path d="M8.11635 76.5587H7.87793C7.87793 70.0612 9.91167 68.897 12.4854 67.4232C13.5559 66.81 14.7695 66.1156 15.9753 64.946C18.598 62.4012 17.7814 59.9886 16.8354 57.1952C16.3342 55.716 15.7667 54.0391 15.6743 52.1858C15.4204 47.0861 20.4791 46.3092 24.5442 45.6853C24.7958 45.6464 25.0443 45.6082 25.2893 45.5693C28.5575 45.0524 28.9324 44.631 30.5101 42.8572C31.3345 41.9321 32.4628 40.6639 34.4781 38.8423C42.526 31.5643 51.989 40.6083 52.0838 40.6998L51.9169 40.8713C51.8245 40.781 42.523 31.8924 34.6372 39.0192C32.6321 40.8324 31.5085 42.0947 30.6884 43.0162C29.104 44.7966 28.6785 45.2753 25.3262 45.806C25.0819 45.8442 24.8327 45.8825 24.58 45.9213C20.4028 46.5632 15.669 47.2893 15.9128 52.1744C16.0028 53.9936 16.541 55.5822 17.0613 57.1187C18.0329 59.9886 18.8722 62.4676 16.1404 65.1175C14.9138 66.3086 13.6865 67.0108 12.6035 67.6312C9.99869 69.1223 8.11635 70.1998 8.11635 76.5587Z" fill="#345848"/>
<path d="M19.6072 84.327L19.5315 84.0999C19.6364 84.0653 30.273 79.6123 32.4039 71.332C33.2634 67.9918 32.3103 64.5679 31.3888 61.2576C30.4667 57.9455 29.5959 54.8174 30.9626 52.4872C32.9064 49.1751 35.808 49.3526 38.3638 49.5068C40.2825 49.6234 41.9384 49.7238 42.7204 48.2518C46.6949 40.7807 50.3338 41.0066 51.7018 41.0879C51.7959 41.0939 51.8776 41.0986 51.9461 41.0998L51.9414 41.3389C51.8704 41.3377 51.7852 41.3323 51.6869 41.3263C50.363 41.2451 46.8344 41.0263 42.9314 48.3641C42.0761 49.9718 40.2659 49.8606 38.3489 49.7453C35.861 49.5929 33.0375 49.422 31.1683 52.6086C29.8522 54.8509 30.7105 57.9317 31.6183 61.1936C32.5052 64.3785 33.5102 67.9888 32.634 71.3912C30.4739 79.7844 19.7133 84.2912 19.6072 84.327Z" fill="#345848"/>
<path d="M12.4945 149.101H168.553V149.411H12.4945V149.101Z" fill="#345848"/>
</svg>
